HIERARCHY
ROOT root
{
	OFFSET 0.000000 0.000000 0.000000
	CHANNELS 6 Xposition Yposition Zposition Zrotation Yrotation Xrotation
	JOINT lhip
	{
		OFFSET 0.058581 -0.082280 -0.017664
		CHANNELS 3 Zrotation Yrotation Xrotation
		JOINT lknee
		{
			OFFSET 0.043451 -0.386469 0.008037
			CHANNELS 3 Zrotation Yrotation Xrotation
			JOINT lankle
			{
				OFFSET -0.014790 -0.426874 -0.037428
				CHANNELS 3 Zrotation Yrotation Xrotation
				JOINT ltoe
				{
					OFFSET 0.041054 -0.060286 0.122042
					CHANNELS 3 Zrotation Yrotation Xrotation
					End Site
					{
						OFFSET 0.000000 0.000000 0.000000
					}
				}
			}
		}
	}
	JOINT rhip
	{
		OFFSET -0.060310 -0.090513 -0.013543
		CHANNELS 3 Zrotation Yrotation Xrotation
		JOINT rknee
		{
			OFFSET -0.043257 -0.383688 -0.004843
			CHANNELS 3 Zrotation Yrotation Xrotation
			JOINT rankle
			{
				OFFSET 0.019056 -0.420046 -0.034562
				CHANNELS 3 Zrotation Yrotation Xrotation
				JOINT rtoe
				{
					OFFSET -0.034840 -0.062106 0.130323
					CHANNELS 3 Zrotation Yrotation Xrotation
					End Site
					{
						OFFSET 0.000000 0.000000 0.000000
					}
				}
			}
		}
	}
	JOINT lowerback
	{
		OFFSET 0.004439 0.124404 -0.038385
		CHANNELS 3 Zrotation Yrotation Xrotation
		JOINT upperback
		{
			OFFSET 0.004488 0.137956 0.026820
			CHANNELS 3 Zrotation Yrotation Xrotation
			JOINT chest
			{
				OFFSET -0.002265 0.056032 0.002855
				CHANNELS 3 Zrotation Yrotation Xrotation
				JOINT lowerneck
				{
					OFFSET -0.013390 0.211636 -0.033468
					CHANNELS 3 Zrotation Yrotation Xrotation
					JOINT upperneck
					{
						OFFSET 0.010113 0.088937 0.050410
						CHANNELS 3 Zrotation Yrotation Xrotation
						End Site
						{
							OFFSET 0.000000 0.000000 0.000000
						}
					}
				}
				JOINT lclavicle
				{
					OFFSET 0.071702 0.114000 -0.018898
					CHANNELS 3 Zrotation Yrotation Xrotation
					JOINT lshoulder
					{
						OFFSET 0.122921 0.045205 -0.019046
						CHANNELS 3 Zrotation Yrotation Xrotation
						JOINT lelbow
						{
							OFFSET 0.255332 -0.015649 -0.022946
							CHANNELS 3 Zrotation Yrotation Xrotation
							JOINT lwrist
							{
								OFFSET 0.265709 0.012698 -0.007375
								CHANNELS 3 Zrotation Yrotation Xrotation
								End Site
								{
									OFFSET 0.000000 0.000000 0.000000
								}
							}
						}
					}
				}
				JOINT rclavicle
				{
					OFFSET -0.082954 0.112472 -0.023707
					CHANNELS 3 Zrotation Yrotation Xrotation
					JOINT rshoulder
					{
						OFFSET -0.113228 0.046853 -0.008472
						CHANNELS 3 Zrotation Yrotation Xrotation
						JOINT relbow
						{
							OFFSET -0.260127 -0.014369 -0.031269
							CHANNELS 3 Zrotation Yrotation Xrotation
							JOINT rwrist
							{
								OFFSET -0.269108 0.006794 -0.006027
								CHANNELS 3 Zrotation Yrotation Xrotation
								End Site
								{
									OFFSET 0.000000 0.000000 0.000000
								}
							}
						}
					}
				}
			}
		}
	}
}
MOTION
Frames: 5
Frame Time: 0.033333
-0.595124 0.413776 0.994020 88.679281 -1.436454 89.442531 -3.057331 -0.329618 4.401494 -4.713071 -12.179493 8.473427 7.106545 4.317815 -17.522192 0.000000 -0.000000 0.000000 -1.951731 0.561443 -31.170541 0.999929 -9.309820 29.378107 5.991160 -10.031129 -3.516358 0.000000 -0.000000 0.000000 -0.554364 -4.581909 10.402266 4.314452 -4.237661 -1.128610 -1.081707 -4.634173 2.713472 4.765968 -2.822282 7.013439 -5.303779 -7.274753 17.909104 -20.600339 4.253997 0.573056 -49.080270 -11.103491 7.583752 17.241831 -48.309089 1.589653 3.353895 -8.502434 -6.743458 22.644250 -2.338857 -9.086204 36.363339 21.524170 4.353552 -90.506533 54.238850 -62.503338 6.940123 9.556342 6.106694 
-0.560979 0.412215 0.986311 89.870022 -1.367118 89.878161 -2.940285 0.020463 5.889137 -4.629790 -12.757534 9.059112 7.192349 4.346783 -19.082730 0.000000 -0.000000 0.000000 -1.968244 0.180842 -31.964823 0.309079 -9.479701 19.552585 6.574465 -10.284181 -0.763986 0.000000 -0.000000 0.000000 -0.174380 -4.721245 10.743941 3.683211 -3.948627 -1.495614 -0.746401 -4.503344 2.084238 4.379486 -3.486089 7.167186 -4.254260 -7.098104 17.612390 -19.856726 2.348283 1.294480 -49.493309 -12.142171 8.427466 18.603048 -49.447059 1.295094 3.588888 -8.561661 -7.591293 21.646270 0.111829 -7.291752 37.012542 21.774447 5.024728 -79.816582 55.322117 -50.823261 7.189162 8.762407 9.561426 
-0.523112 0.409271 0.977714 91.354210 -1.514599 90.283919 -2.456458 0.381725 7.812893 -4.805745 -13.829582 9.403912 6.518830 3.927497 -20.837766 0.000000 -0.000000 0.000000 -2.230538 -0.610056 -31.838123 -0.421081 -9.947750 9.879845 7.674323 -10.067156 -0.124998 0.000000 -0.000000 0.000000 -0.144580 -4.599306 10.021483 3.238129 -3.734393 -0.939708 -0.572649 -4.365023 1.941189 4.548140 -3.895925 6.856680 -3.651391 -7.768200 17.195870 -19.448469 1.581037 1.380904 -49.627572 -14.454124 9.599557 17.689904 -50.022999 3.575399 3.226913 -8.823906 -7.685397 21.895403 1.372526 -6.496424 37.415172 22.231258 5.923747 -65.911548 54.531837 -36.896190 8.034089 7.860774 11.037509 
-0.483162 0.406008 0.969818 93.775576 -1.744638 90.494919 -1.470368 1.018913 9.682123 -5.353467 -15.588018 10.184137 5.750191 2.910311 -22.218282 0.000000 -0.000000 0.000000 -3.057967 -1.875850 -31.127073 -0.721792 -10.999297 2.735774 8.986553 -9.729039 -0.777077 0.000000 -0.000000 0.000000 -0.000860 -4.828892 10.032924 2.836924 -3.642179 -1.210452 -0.410013 -4.502322 1.589559 4.576618 -4.261360 6.370569 -3.056877 -8.487533 17.246934 -19.342181 0.757124 1.698558 -49.784185 -15.931152 10.582654 16.353709 -50.447977 6.131145 2.490601 -9.131811 -7.200973 22.242527 2.324868 -5.692350 37.736915 21.846844 6.531831 -51.069403 51.505733 -23.235947 9.062985 6.464052 11.089634 
-0.439931 0.401183 0.962296 96.294184 -1.769878 90.730609 -0.000961 1.121428 11.404354 -5.952774 -17.099384 11.589681 3.736675 2.282153 -22.273291 0.000000 -0.000000 0.000000 -4.002596 -2.791925 -31.547406 -0.975851 -12.114598 2.709798 9.462461 -10.210882 -2.039229 0.000000 -0.000000 0.000000 0.139706 -5.174699 9.437423 2.647735 -3.363136 -0.914795 -0.340161 -4.605991 1.236359 4.870807 -4.929877 5.699611 -2.965194 -9.830443 17.858658 -19.546565 0.543281 1.811726 -50.213071 -17.013108 11.713238 15.243949 -50.771333 8.853810 1.060507 -9.575771 -5.822702 22.806176 3.298290 -4.576761 37.230709 21.004549 7.231368 -37.692653 46.030250 -12.129270 11.127004 5.165646 9.001056 
